<svg width="25" height="25" viewBox="0 0 25 25" fill="none" xmlns="http://www.w3.org/2000/svg">
<path d="M4.6875 4.6875C4.6875 5.98193 3.63818 7.03125 2.34375 7.03125C1.04932 7.03125 0 5.98193 0 4.6875C0 3.39307 1.04932 2.34375 2.34375 2.34375C3.63818 2.34375 4.6875 3.39307 4.6875 4.6875ZM2.34375 10.1562C1.04932 10.1562 0 11.2056 0 12.5C0 13.7944 1.04932 14.8438 2.34375 14.8438C3.63818 14.8438 4.6875 13.7944 4.6875 12.5C4.6875 11.2056 3.63818 10.1562 2.34375 10.1562ZM2.34375 17.9688C1.04932 17.9688 0 19.0181 0 20.3125C0 21.6069 1.04932 22.6562 2.34375 22.6562C3.63818 22.6562 4.6875 21.6069 4.6875 20.3125C4.6875 19.0181 3.63818 17.9688 2.34375 17.9688ZM7.03125 6.44531H24.2188C24.6502 6.44531 25 6.09556 25 5.66406V3.71094C25 3.27944 24.6502 2.92969 24.2188 2.92969H7.03125C6.59976 2.92969 6.25 3.27944 6.25 3.71094V5.66406C6.25 6.09556 6.59976 6.44531 7.03125 6.44531ZM7.03125 14.2578H24.2188C24.6502 14.2578 25 13.9081 25 13.4766V11.5234C25 11.0919 24.6502 10.7422 24.2188 10.7422H7.03125C6.59976 10.7422 6.25 11.0919 6.25 11.5234V13.4766C6.25 13.9081 6.59976 14.2578 7.03125 14.2578ZM7.03125 22.0703H24.2188C24.6502 22.0703 25 21.7206 25 21.2891V19.3359C25 18.9044 24.6502 18.5547 24.2188 18.5547H7.03125C6.59976 18.5547 6.25 18.9044 6.25 19.3359V21.2891C6.25 21.7206 6.59976 22.0703 7.03125 22.0703Z" fill="black"/>
</svg>
